<svg xmlns="http://www.w3.org/2000/svg" xmlns:xlink="http://www.w3.org/1999/xlink" width="376.954" height="376.954" viewBox="0 0 376.954 376.954">
  <defs>
    <radialGradient id="radial-gradient" cx="0.5" cy="0.5" r="0.5" gradientUnits="objectBoundingBox">
      <stop offset="0" stop-color="#fff"/>
      <stop offset="1" stop-color="#794ea5" stop-opacity="0"/>
      <stop offset="1" stop-color="#274f54"/>
    </radialGradient>
    <clipPath id="clip-path">
      <ellipse id="타원_492" data-name="타원 492" cx="98" cy="99" rx="98" ry="99" transform="translate(0.476 0.128)" fill="#7b4ea7"/>
    </clipPath>
    <clipPath id="clip-path-2">
      <rect id="사각형_2749" data-name="사각형 2749" width="295.61" height="207.541" transform="translate(0 0)" fill="none"/>
    </clipPath>
    <clipPath id="clip-path-3">
      <rect id="사각형_1614" data-name="사각형 1614" width="337" height="264" transform="translate(-0.294 -0.032)" fill="none" stroke="#707070" stroke-width="1"/>
    </clipPath>
    <clipPath id="clip-path-4">
      <rect id="사각형_1613" data-name="사각형 1613" width="291.749" height="267.439" fill="none"/>
    </clipPath>
  </defs>
  <g id="그룹_4978" data-name="그룹 4978" transform="translate(-178.015 -159.015)">
    <path id="패스_8023" data-name="패스 8023" d="M188.477,0C292.57,0,376.954,84.384,376.954,188.477S292.57,376.954,188.477,376.954,0,292.57,0,188.477,84.384,0,188.477,0Z" transform="translate(178.015 159.015)" fill="url(#radial-gradient)"/>
    <g id="마스크_그룹_144" data-name="마스크 그룹 144" transform="translate(265.135 247.872)" clip-path="url(#clip-path)">
      <g id="그룹_4470" data-name="그룹 4470" transform="translate(-49.265 -4.605)">
        <g id="그룹_4469" data-name="그룹 4469" transform="translate(0 0)" clip-path="url(#clip-path-2)">
          <path id="패스_8022" data-name="패스 8022" d="M11.382,17.429a2.176,2.176,0,0,0,2.157-2.237,2.2,2.2,0,1,0-4.4.17,2.179,2.179,0,0,0,2.24,2.067m83.7,172.061a1.53,1.53,0,1,0,.1,3.057,1.529,1.529,0,1,0-.1-3.057M36.538,105.606a1.547,1.547,0,1,0-1.594,1.5,1.562,1.562,0,0,0,1.594-1.5m97.23-50.555a1.528,1.528,0,1,0-1.555-1.534,1.527,1.527,0,0,0,1.555,1.534m-3.024,41.878A1.52,1.52,0,0,0,132.3,95.4a1.54,1.54,0,1,0-1.553,1.528M111.616,142.09a1.528,1.528,0,0,0,.056-3.054,1.56,1.56,0,0,0-1.562,1.542,1.532,1.532,0,0,0,1.505,1.513M253.959,52.081a1.535,1.535,0,0,0-1.473-1.534,1.5,1.5,0,1,0-.053,3,1.494,1.494,0,0,0,1.526-1.462M267.241,5.676a1.422,1.422,0,0,0-1.431,1.441,1.45,1.45,0,0,0,2.9-.04,1.4,1.4,0,0,0-1.469-1.4M16.821,40.416a1.231,1.231,0,1,0-1.207,1.264,1.207,1.207,0,0,0,1.207-1.264M246.965,188.224a1.183,1.183,0,0,0-1.182,1.2,1.213,1.213,0,0,0,1.267,1.212,1.209,1.209,0,1,0-.085-2.415m22-101.772a1.236,1.236,0,0,0-1.229-1.18,1.215,1.215,0,0,0,.073,2.429,1.226,1.226,0,0,0,1.157-1.249m-75.223,90.83a1.211,1.211,0,0,0-1.146-1.261,1.228,1.228,0,0,0-1.26,1.152,1.2,1.2,0,0,0,1.154,1.246,1.182,1.182,0,0,0,1.253-1.138M75.418,153.224a1.136,1.136,0,0,0-2.269-.1,1.12,1.12,0,0,0,1.094,1.185,1.09,1.09,0,0,0,1.176-1.089M20.122,189.2a1.149,1.149,0,0,0-1.146-1.073,1.11,1.11,0,0,0-1.059,1.149,1.076,1.076,0,0,0,1.133,1.059,1.109,1.109,0,0,0,1.072-1.136M208.982,86.605a1.087,1.087,0,0,0-1.089-1.117,1.069,1.069,0,0,0-1.115,1.08,1.053,1.053,0,0,0,1.077,1.1,1.077,1.077,0,0,0,1.127-1.064M176.9,70.9a1.035,1.035,0,1,0-2.067.1,1.035,1.035,0,0,0,2.067-.1M37.551,50.056a1.025,1.025,0,0,0,1.695.753,1.068,1.068,0,0,0,.379-.848,1.03,1.03,0,0,0-1.038-.972,1.064,1.064,0,0,0-1.035,1.067M184.64,181.771a1.058,1.058,0,0,0-1.034-1.064,1.047,1.047,0,0,0-1.043,1.059,1.029,1.029,0,0,0,1,1.012,1.018,1.018,0,0,0,1.078-1.006m-183.4-8.305a1.016,1.016,0,0,0-1.052,1.021,1.03,1.03,0,0,0,1.052,1.031,1.07,1.07,0,0,0,1.024-.992,1.045,1.045,0,0,0-1.023-1.06m5,29.118a.986.986,0,0,0-1.012.987,1.017,1.017,0,0,0,1.034,1.056,1.052,1.052,0,0,0,1.027-1.077,1.039,1.039,0,0,0-1.048-.966M261.149,116.5a1.02,1.02,0,0,0-1.07-1.027,1,1,0,0,0-.994,1.014,1.032,1.032,0,1,0,2.063.013m-32.981-1.473a1.018,1.018,0,0,0-2.034-.038,1.017,1.017,0,1,0,2.034.038M20.573,25.577a1.03,1.03,0,0,0,1.013-1,1.063,1.063,0,0,0-1.046-1.056,1.078,1.078,0,0,0-1.018,1.01,1.039,1.039,0,0,0,1.051,1.045m205.8,159.248a1.006,1.006,0,0,0,1.354-.552,1.025,1.025,0,0,0-.627-1.332.985.985,0,0,0-1.282.7,3.534,3.534,0,0,0,.021.766,6.724,6.724,0,0,0,.534.417M21.038,167.467a1.038,1.038,0,0,0-1.053.963,1.066,1.066,0,0,0,1.048,1.061,1.02,1.02,0,0,0,1-1.017.994.994,0,0,0-.993-1.007M168.44,7.391a1,1,0,0,0-1.061-1.007,1.032,1.032,0,0,0-.981,1.024,1.064,1.064,0,0,0,1,1.017,1.027,1.027,0,0,0,1.044-1.034m-131.9,93.69a1.042,1.042,0,0,0-1.018.986,1.022,1.022,0,0,0,1.048,1.028,1.046,1.046,0,0,0,.988-1.021,1.064,1.064,0,0,0-1.018-.993M111.31,61.415a.983.983,0,0,0-.976-1.017.993.993,0,0,0-1.015.986,1.048,1.048,0,0,0,.986,1.037,1.019,1.019,0,0,0,1.005-1.006m158.265,42.5a.991.991,0,1,0,.071-1.98.991.991,0,1,0-.071,1.98m-168.2,56.959a1.006,1.006,0,0,0-.041-2.011,1.037,1.037,0,0,0-.981,1.031,1.012,1.012,0,0,0,1.022.981M10.031,135.043a1.01,1.01,0,0,0-1.013,1,1.04,1.04,0,0,0,.952.986,1,1,0,0,0,1.039-.963.985.985,0,0,0-.978-1.019M274.01,22.172a1.021,1.021,0,0,0,.97-1.037,1,1,0,0,0-1.033-.964.986.986,0,0,0-.963,1.027,1,1,0,0,0,1.026.973M102.69,55.134a.993.993,0,0,0-.979-1.016,1.042,1.042,0,0,0-1.005,1.008,1.031,1.031,0,0,0,.958.97.988.988,0,0,0,1.026-.963M112.708,196.08a.993.993,0,0,0-1.017-.981,1.013,1.013,0,0,0-.929,1,.973.973,0,1,0,1.945-.014M61.28,175.311a.972.972,0,1,0-.957-1.033.982.982,0,0,0,.957,1.033M134.72,50.3a.965.965,0,0,0,.9-1.078.955.955,0,0,0-1.092-.876.931.931,0,0,0-.859,1.029.955.955,0,0,0,1.051.926M21.491,69.171a.954.954,0,0,0-.947.957.934.934,0,0,0,1.005.967.963.963,0,0,0-.058-1.924M130.3,202.03a.96.96,0,0,0-.935-.968.978.978,0,0,0-1.011.983,1,1,0,0,0,1.026.976.968.968,0,0,0,.919-.991m10.844-89.245a.96.96,0,0,0-.077,1.917.994.994,0,0,0,1.03-.955,1,1,0,0,0-.953-.962m-6.444,5.543a.96.96,0,0,0-.077,1.917.994.994,0,0,0,1.03-.956,1,1,0,0,0-.953-.962M84.235,86.695a.964.964,0,1,0-.926-.978.973.973,0,0,0,.926.978m20.493,7.971a.945.945,0,1,0-.944.955.953.953,0,0,0,.944-.955m-20.465,6.495a.965.965,0,0,0-.932-.977,1.008,1.008,0,0,0-.975.948.938.938,0,0,0,.942.956.926.926,0,0,0,.965-.927m87.72,56.871a.954.954,0,0,0-.934.962.973.973,0,0,0,.965.939.948.948,0,0,0,.925-.966.938.938,0,0,0-.955-.935M5.416,4.019a.918.918,0,0,0,.97.908.957.957,0,0,0,.9-.992,1,1,0,0,0-.946-.883.949.949,0,0,0-.923.967M230.9,140.146a.943.943,0,0,0-.924.887.931.931,0,0,0,1.862.064.939.939,0,0,0-.937-.951M96.886,178.529a.935.935,0,0,0-.977-.9.963.963,0,0,0-.9.909.993.993,0,0,0,.952.955.953.953,0,0,0,.928-.963M66.312,125.193a.916.916,0,0,0,.966.9.939.939,0,0,0,.907-.9.979.979,0,0,0-.937-.966.961.961,0,0,0-.935.959M48.38,3.651a.915.915,0,0,0,.921-.888.965.965,0,0,0-.935-.97.977.977,0,0,0-.931.985.937.937,0,0,0,.945.873M29.988,89.638a.969.969,0,0,0-.946.948.983.983,0,0,0,.9.919.934.934,0,1,0,.051-1.867M77.871,36.156a.911.911,0,0,0,.9-.972.94.94,0,0,0-.942-.86.952.952,0,0,0-.9.908.918.918,0,0,0,.948.925M66,3.359a.914.914,0,1,0,.05,1.828.929.929,0,0,0,.9-.905A.916.916,0,0,0,66,3.359m76.62,85.4a.908.908,0,1,0,.869.953.936.936,0,0,0-.869-.953m-41.029,31.31a.894.894,0,1,0,.912.876.9.9,0,0,0-.912-.876m-49.453-15.2a.9.9,0,0,0-1.791-.081.9.9,0,1,0,1.791.081m-1.13-83.509a.9.9,0,0,0-1.789-.108.9.9,0,1,0,1.789.108M23.3,139.745a.9.9,0,0,0-.861-.93.914.914,0,0,0-.9.816.887.887,0,0,0,.828.957.858.858,0,0,0,.929-.843M52.321,3.768a.913.913,0,0,0-.91-.9.948.948,0,0,0-.862.876.917.917,0,0,0,.881.929.887.887,0,0,0,.892-.908M123.7,82.82a.9.9,0,0,0,.862-.929.917.917,0,0,0-.952-.845.884.884,0,0,0-.81.894.873.873,0,0,0,.9.88m-22.973-8.842a.9.9,0,0,0,.862-.929.917.917,0,0,0-.952-.846.885.885,0,0,0-.811.894.873.873,0,0,0,.9.88M180.48,188.707a.875.875,0,0,0-.937-.837.9.9,0,0,0-.859.926.943.943,0,0,0,.947.853.916.916,0,0,0,.849-.941M90.644,32.435a.889.889,0,0,0-.866.925.871.871,0,0,0,.947.836.845.845,0,0,0,.819-.878.866.866,0,0,0-.9-.882m192.27,141.652a.892.892,0,0,0-1.784,0,.892.892,0,1,0,1.784,0M230.223,204.5a.885.885,0,0,0-.869.848.916.916,0,0,0,.906.9.891.891,0,0,0,.864-.937.88.88,0,0,0-.9-.814m50.546-82.61a.828.828,0,0,0,.932.819.873.873,0,0,0,.823-.873.923.923,0,0,0-.912-.883.894.894,0,0,0-.843.937M168.107,150.964a.869.869,0,0,0-.86-.932.909.909,0,0,0-.907.9.937.937,0,0,0,.835.9.9.9,0,0,0,.932-.867m-119.849,8.41a.85.85,0,0,0-.937-.836.878.878,0,0,0-.833.876.918.918,0,0,0,.913.892.885.885,0,0,0,.858-.931m58.665-51.24a.872.872,0,0,0-.914-.865.857.857,0,0,0-.874.9.888.888,0,0,0,.91.879.9.9,0,0,0,.878-.916M137.889.929a.841.841,0,0,0-.949-.822.865.865,0,0,0-.81.895.95.95,0,0,0,.882.852.9.9,0,0,0,.877-.924M69.063,165.345a.834.834,0,0,0-.853-.844.857.857,0,0,0-.9.881.925.925,0,0,0,.861.869.9.9,0,0,0,.9-.906M243.588,18.392a.867.867,0,0,0-.885-.9.876.876,0,1,0,.037,1.752.864.864,0,0,0,.848-.854M12.187,157.579a.843.843,0,0,0,.893-.8.854.854,0,0,0-.854-.925.864.864,0,0,0-.039,1.727M109.1,173.66a.854.854,0,0,0-.867.9.9.9,0,0,0,.868.84.953.953,0,0,0,.877-.922.875.875,0,0,0-.879-.82m164.321-18.682a.877.877,0,0,0-.862-.855.891.891,0,0,0-.845.877.856.856,0,0,0,.868.838.838.838,0,0,0,.839-.86M209.7,164.94a.835.835,0,0,0,.876-.8.856.856,0,0,0-.87-.9.877.877,0,0,0-.849.85.85.85,0,0,0,.843.848m-169.948,9.8a.863.863,0,0,0-.846.867.888.888,0,0,0,.888.832.864.864,0,0,0,.833-.878.827.827,0,0,0-.876-.821M280.857.84a.847.847,0,1,0-1.693.068A.847.847,0,1,0,280.857.84M51.313,182.862a.846.846,0,0,0-.8-.886.867.867,0,0,0-.887.806.922.922,0,0,0,.815.9.856.856,0,0,0,.869-.816m46.4-31.769a.815.815,0,0,0-.829-.847.864.864,0,0,0-.877.816.9.9,0,0,0,.883.9.862.862,0,0,0,.822-.868m62.642,13.492a.886.886,0,0,0-.9-.809.847.847,0,1,0,.9.809M94.286,132.375a.866.866,0,0,0-.823.806.825.825,0,1,0,1.65,0,.875.875,0,0,0-.826-.8M203.47,20.87a.865.865,0,0,0-.879.814.874.874,0,0,0,.759.853.836.836,0,1,0,.12-1.667m7.029,88.048a.833.833,0,0,0-.816-.865.846.846,0,0,0-.041,1.69.835.835,0,0,0,.857-.825M94.778,18.3a.831.831,0,0,0-.041,1.662.832.832,0,1,0,.041-1.662m136.485,117a.886.886,0,0,0-.863.758.821.821,0,1,0,1.64.087.887.887,0,0,0-.776-.845M203.16,5.7a.818.818,0,1,0-1.633.084.79.79,0,0,0,.815.782.809.809,0,0,0,.818-.866M188.443,23.759a.82.82,0,0,0,.744.849.853.853,0,0,0,.883-.807.84.84,0,0,0-.836-.851.825.825,0,0,0-.79.808m97.636-6.2a.809.809,0,0,0-.792-.8.794.794,0,0,0-.808.775.777.777,0,0,0,.825.834.786.786,0,0,0,.775-.808m-90.834,96.469a.826.826,0,0,0,.819.787.85.85,0,0,0,.8-.817.824.824,0,0,0-.864-.824.834.834,0,0,0-.751.853m5.81-16.023a.828.828,0,0,0,.82.788.851.851,0,0,0,.8-.817.825.825,0,0,0-.864-.824.835.835,0,0,0-.752.853M38.907,188.421a.829.829,0,0,0-.791-.812.812.812,0,0,0-.842.756.845.845,0,0,0,.825.864.858.858,0,0,0,.807-.808m28.07-28.227a.807.807,0,0,0-.834-.774.784.784,0,0,0-.776.823.828.828,0,0,0,.826.785.838.838,0,0,0,.784-.835M7.6,104.043a.8.8,0,1,0,.066,1.6.8.8,0,0,0-.066-1.6M287.585,81.168a.813.813,0,0,0,.8-.791.813.813,0,1,0-.8.791M103.262,158.259a.518.518,0,0,0,.555.505.53.53,0,0,0,.509-.556.55.55,0,0,0-.559-.513.542.542,0,0,0-.5.564m58.437,8.978a.776.776,0,0,0,.814.762.8.8,0,0,0,.774-.817.853.853,0,0,0-.831-.774.794.794,0,0,0-.757.83M54.217,56.662a.748.748,0,0,0,.75-.826.792.792,0,0,0-.774-.743.813.813,0,0,0-.8.809.761.761,0,0,0,.822.76M254.745,8.953a.749.749,0,0,0-.8-.782.8.8,0,0,0-.775.821.817.817,0,0,0,.774.751.777.777,0,0,0,.8-.789m-194.1.014a.778.778,0,0,0-.817-.768.761.761,0,0,0-.754.824.778.778,0,0,0,.771.736.8.8,0,0,0,.8-.792M272.569,186.992a.768.768,0,1,0-.844.743.812.812,0,0,0,.844-.743M48.533,117.432a.8.8,0,0,0-.781.726.755.755,0,0,0,.7.787.758.758,0,1,0,.079-1.512M39.093,39.25a.736.736,0,0,0,.738.75.786.786,0,0,0,.8-.784.794.794,0,0,0-.756-.76.751.751,0,0,0-.784.793M64.435,161.879a.755.755,0,1,0,.034,1.509.755.755,0,0,0-.034-1.509m54.954,2.152a.779.779,0,0,0,.725-.785.791.791,0,0,0-.777-.734.76.76,0,0,0,.052,1.519m96.547-40.84a.744.744,0,0,0-.726-.769.759.759,0,0,0-.778.72.752.752,0,0,0,1.5.05m-195.789,40.2a.747.747,0,0,0-.783.707.738.738,0,0,0,.727.762.736.736,0,1,0,.056-1.47m163.039-12.744a.785.785,0,0,0-.718-.784.771.771,0,0,0-.783.711.758.758,0,0,0,.708.784.8.8,0,0,0,.793-.712M6.938,83.008a.715.715,0,0,0-.63.828.778.778,0,0,0,.78.625.783.783,0,0,0,.675-.816.709.709,0,0,0-.824-.636m265.251,119.2a.728.728,0,0,0-.73-.671.753.753,0,0,0-.724.767.741.741,0,0,0,.781.7.706.706,0,0,0,.673-.8m-4.837-11.636a.728.728,0,0,0-.73-.671.754.754,0,0,0-.725.767.741.741,0,0,0,.782.7.707.707,0,0,0,.673-.8M16.378,157.743a.714.714,0,0,0,.711-.686.75.75,0,0,0-.731-.759.789.789,0,0,0-.759.739.749.749,0,0,0,.779.706M82,104.85a.761.761,0,0,0-.745-.742.745.745,0,0,0-.707.695A.727.727,0,1,0,82,104.85m22.7-87.9a.751.751,0,1,0-.74.743.731.731,0,0,0,.74-.743m64.947,171.781a.727.727,0,1,0-.8.7.74.74,0,0,0,.8-.7M67.29,13.094a.712.712,0,0,0-.7-.709.725.725,0,0,0-.739.752.72.72,0,1,0,1.439-.043m43.958,29.18a.735.735,0,0,0-.742.746.726.726,0,0,0,.772.715.711.711,0,0,0,.693-.711.687.687,0,0,0-.722-.75m84.171,110.67a.7.7,0,0,0,.731.754.715.715,0,0,0,.74-.75.737.737,0,0,0-.7-.717.7.7,0,0,0-.769.713M59.924,204.685a.748.748,0,0,0,.737-.752.689.689,0,0,0-.677-.714.709.709,0,0,0-.78.693.754.754,0,0,0,.72.772m88.9-13.428a.725.725,0,0,0-.665-.744.763.763,0,0,0-.775.733.739.739,0,0,0,.722.7.7.7,0,0,0,.718-.688M267.28,123.909a.714.714,0,0,0-1.423-.108.714.714,0,1,0,1.423.108m-14.327-.707a.714.714,0,0,0-1.424-.108.714.714,0,1,0,1.424.108M119.12,7.709a.77.77,0,0,0-.7.718.775.775,0,0,0,.779.717.731.731,0,0,0,.683-.72.723.723,0,0,0-.765-.716M51.239,117.026a.754.754,0,0,0-.775-.719.764.764,0,0,0-.665.751.736.736,0,0,0,.74.668.717.717,0,0,0,.7-.7M93.264,14.6a.753.753,0,0,0-.723-.7.744.744,0,0,0-.688.731.705.705,0,0,0,.724.677.693.693,0,0,0,.687-.71M141.988,62.6a.726.726,0,0,0-.661-.734.75.75,0,0,0-.763.72.731.731,0,0,0,.708.691.716.716,0,0,0,.715-.677M277.062,35.1a.709.709,0,0,0-1.417.014.725.725,0,0,0,.76.722.7.7,0,0,0,.657-.736M59.005,145.956a.684.684,0,0,0-.726.671.7.7,0,0,0,.676.728.726.726,0,0,0,.731-.68.7.7,0,0,0-.681-.719m99.288,59.067a.66.66,0,0,0-.7-.681.717.717,0,0,0-.7.7.742.742,0,0,0,.722.691.693.693,0,0,0,.679-.712m9.07-7.9a.661.661,0,0,0-.7-.681.717.717,0,0,0-.7.7.742.742,0,0,0,.722.691.693.693,0,0,0,.679-.712M17.452,176.383a.744.744,0,0,0-.747.657.73.73,0,0,0,.722.759.708.708,0,0,0,.025-1.416M29.975,28.113a.683.683,0,0,0-.714-.681.72.72,0,0,0-.659.747.691.691,0,0,0,.684.632.668.668,0,0,0,.689-.7m8.211-25.1a.713.713,0,0,0-.7-.69.723.723,0,0,0-.7.7.731.731,0,0,0,.707.691.713.713,0,0,0,.69-.7M171.048,187.678a.685.685,0,0,0-1.371,0,.769.769,0,0,0,.646.692.735.735,0,0,0,.725-.688m6.7,7.743a.685.685,0,0,0-1.371,0,.769.769,0,0,0,.645.691.735.735,0,0,0,.725-.688m-18.385-83.344a.7.7,0,0,0-.724-.675.68.68,0,0,0-.647.74.7.7,0,0,0,.674.643.723.723,0,0,0,.7-.708M65.267,197.447a.685.685,0,0,0-.689.7.7.7,0,0,0,.641.667.685.685,0,0,0,.682-.621.675.675,0,0,0-.633-.744M89.612,95.465a.679.679,0,1,0,0-1.356.673.673,0,0,0-.65.644.646.646,0,0,0,.651.713m170.5,2.292a.682.682,0,0,0-.714-.682.684.684,0,0,0,0,1.367.693.693,0,0,0,.717-.685m-30.556,20.607a.682.682,0,0,0-.715-.682.684.684,0,0,0,0,1.368.693.693,0,0,0,.717-.685M165.007,34.81a.687.687,0,0,0-.628-.675.658.658,0,1,0-.125,1.309.7.7,0,0,0,.753-.634m117.3,63.145a.673.673,0,0,0-.691-.611.7.7,0,0,0-.642.819.677.677,0,0,0,.735.561.655.655,0,0,0,.6-.768M39.047,148.33a.656.656,0,1,0,.1,1.307.656.656,0,1,0-.1-1.307M130.9,12.976a.717.717,0,0,0-.672.72.708.708,0,0,0,.674.637.716.716,0,0,0,.67-.64.709.709,0,0,0-.672-.718M38.546,132.387a.683.683,0,0,0-.67.711.69.69,0,0,0,.7.608.666.666,0,0,0,.665-.635.655.655,0,0,0-.691-.684M98.573,33.327a.675.675,0,1,0-.047-1.349.676.676,0,0,0,.047,1.349m30.51,45.526a.666.666,0,0,0,.676-.617.657.657,0,0,0-.593-.7.659.659,0,1,0-.083,1.313M285.314,30.991a.669.669,0,0,0-.693.614.66.66,0,0,0,.67.713.664.664,0,0,0,.023-1.326M132.16,170.018a.653.653,0,0,0-.614-.681.666.666,0,0,0-.679.621.613.613,0,0,0,.613.667.624.624,0,0,0,.68-.607M31.817,20.3a.7.7,0,0,0-.662.659.66.66,0,1,0,1.32.014.722.722,0,0,0-.657-.673m55.93-9.257a.68.68,0,0,0,.689-.612.654.654,0,0,0-1.3-.076.684.684,0,0,0,.616.688M193.7,15.906a.675.675,0,0,0,.6.7.625.625,0,0,0,.692-.595.65.65,0,0,0-.591-.706.673.673,0,0,0-.706.6M288.63,167.883a.654.654,0,0,0-.675-.618.7.7,0,0,0-.6.631.665.665,0,0,0,.65.653.63.63,0,0,0,.623-.666M66.175,177.355a.625.625,0,0,0,.628-.65.632.632,0,0,0-1.264.012.607.607,0,0,0,.635.638m119.947-29.443a.653.653,0,0,0-.6-.618.672.672,0,0,0-.651.657.638.638,0,0,0,.692.6.585.585,0,0,0,.556-.636M48.624,170a.619.619,0,0,0-.563-.643.653.653,0,0,0-.688.615.664.664,0,0,0,.659.649.623.623,0,0,0,.592-.62m109.442,10.8a.65.65,0,0,0,.633-.655.682.682,0,0,0-.683-.616.656.656,0,0,0-.582.626.618.618,0,0,0,.631.645M159.449,18.2a.639.639,0,0,0-.614.592.665.665,0,0,0,.58.634.639.639,0,0,0,.649-.637.632.632,0,0,0-.615-.589M93.539,182.577a.619.619,0,0,0-.576.62.643.643,0,0,0,.615.587.661.661,0,0,0,.582-.626.645.645,0,0,0-.62-.58M58.266,11.079a.624.624,0,0,0-.622-.65.663.663,0,0,0-.61.6.628.628,0,0,0,.558.634.588.588,0,0,0,.674-.584m27.9,157.786a.65.65,0,0,0,.649-.566.677.677,0,0,0-.641-.667.614.614,0,0,0-.593.615.6.6,0,0,0,.585.618M265.9,201.706a.632.632,0,0,0-.643-.639.608.608,0,0,0-.588.605.616.616,0,0,0,.634.64.636.636,0,0,0,.6-.606M252.182,203.6a.632.632,0,0,0-.643-.639.608.608,0,0,0-.588.605.616.616,0,0,0,.634.64.636.636,0,0,0,.6-.606M38.671,40a.609.609,0,0,0-.564-.638.625.625,0,0,0-.686.6.685.685,0,0,0,.567.658A.665.665,0,0,0,38.671,40m177.969.989a.621.621,0,0,0-.626.584.612.612,0,0,0,.573.633.667.667,0,0,0,.641-.585.648.648,0,0,0-.588-.633M6.532,118.185a.667.667,0,0,0-.68-.621.652.652,0,0,0-.568.649.606.606,0,0,0,.674.6.616.616,0,0,0,.573-.628M83.939,2.452a.643.643,0,0,0,.6-.616.621.621,0,1,0-1.242.038.651.651,0,0,0,.64.578m50.07,183.186a.606.606,0,1,0-.6.61.645.645,0,0,0,.6-.61M25.626,126.2a.667.667,0,0,0-.681-.616.615.615,0,0,0-.541.656.585.585,0,0,0,.626.56.607.607,0,0,0,.6-.6m166.825-11.721a.594.594,0,1,0-1.188,0,.6.6,0,0,0,.593.607.613.613,0,0,0,.595-.609M34.264,11.336a.59.59,0,1,0-1.18-.047.57.57,0,0,0,.563.614.591.591,0,0,0,.617-.567M32.937,176.77a.6.6,0,0,0-.614.584.593.593,0,0,0,.612.585.585.585,0,0,0,0-1.17M21.548,151.963a.635.635,0,0,0,.593-.53.6.6,0,0,0-.59-.606.587.587,0,0,0-.543.566.6.6,0,0,0,.54.57M140.7,29.158a.608.608,0,0,0-.564.546.566.566,0,1,0,1.132,0,.609.609,0,0,0-.568-.542M.56,23.7a.566.566,0,1,0,.022,1.131.585.585,0,0,0,.566-.616A.593.593,0,0,0,.56,23.7M160.622,144.135a.556.556,0,0,0-.52-.57.546.546,0,0,0-.586.5.583.583,0,0,0,.556.625.589.589,0,0,0,.551-.551m16.7-62.389a.557.557,0,0,0-1.112-.067.557.557,0,0,0,1.112.067M273.711,195.5a.558.558,0,0,0-1.116.013.559.559,0,1,0,1.116-.013M11.354,197.075a.552.552,0,1,0-1.1.08.53.53,0,0,0,.584.507.564.564,0,0,0,.518-.587M260.537,60.517a.559.559,0,0,0-1.118.011.573.573,0,0,0,.567.542.563.563,0,0,0,.551-.553M64.546,126.853a.535.535,0,0,0-.569.508.593.593,0,0,0,.574.6.612.612,0,0,0,.536-.567.543.543,0,0,0-.541-.539m-9.9,42.714a.534.534,0,0,0,.508-.571.526.526,0,0,0-.56-.516.552.552,0,0,0-.519.567.575.575,0,0,0,.572.52m8.167,22.981a.557.557,0,1,0,.587.514.584.584,0,0,0-.587-.514M63.944,38.115a.55.55,0,0,0,.536-.556.535.535,0,0,0-.608-.551.558.558,0,0,0-.5.585.576.576,0,0,0,.575.521M235.8,69.61a.56.56,0,0,0-1.118-.027.56.56,0,1,0,1.118.027m-30.326,3.537a.537.537,0,0,0-.579.5.578.578,0,0,0,.505.586.56.56,0,0,0,.571-.514.515.515,0,0,0-.5-.571M156.773,12.008a.58.58,0,0,0-.571-.537.544.544,0,0,0-.522.579.531.531,0,0,0,.561.53.558.558,0,0,0,.532-.571m16.611,30.728a.559.559,0,0,0-.565-.53.521.521,0,0,0-.54.541.553.553,0,1,0,1.105-.011M98.226,97.214a.569.569,0,0,0,.564-.543.6.6,0,0,0-.551-.567.569.569,0,0,0-.557.549.561.561,0,0,0,.544.561m167.2,40.22a.539.539,0,1,0-.53.561.544.544,0,0,0,.53-.561M62.221,96.482a.576.576,0,0,0-.594.576.555.555,0,0,0,1.11-.016.533.533,0,0,0-.516-.56M211.838,62.529a.6.6,0,0,0-.551-.565.526.526,0,0,0-.552.538.573.573,0,0,0,.525.58.648.648,0,0,0,.577-.553M73.753,7.163a.592.592,0,0,0-.531.575.583.583,0,0,0,.586.515.574.574,0,0,0,.532-.572.588.588,0,0,0-.587-.518m85.17,41.552a.505.505,0,0,0-.584-.479.527.527,0,0,0-.5.5.586.586,0,0,0,.595.583.57.57,0,0,0,.484-.6m42.908,28.642a.571.571,0,0,0,.57-.53.543.543,0,0,0-.463-.542.555.555,0,0,0-.611.475.584.584,0,0,0,.5.6m-70,57.439a.532.532,0,0,0-.542-.544.524.524,0,0,0-.539.464.542.542,0,1,0,1.081.081m4.347-24.174a.526.526,0,0,0,.566-.507.543.543,0,0,0-.518-.564.57.57,0,0,0-.572.517.54.54,0,0,0,.524.554M15.591,57.331a.524.524,0,0,0-.535-.556.543.543,0,0,0-.57.526.577.577,0,0,0,.538.575.583.583,0,0,0,.567-.545m44.778,57.59a.524.524,0,0,0,.483-.6.508.508,0,0,0-.529-.47.548.548,0,0,0-.543.551.575.575,0,0,0,.589.517m153.387,14.015a.538.538,0,1,0,.056,1.073.521.521,0,0,0,.475-.519.56.56,0,0,0-.531-.555m14.847,21.92a.573.573,0,0,0-.535.574.531.531,0,0,0,.594.5.5.5,0,0,0,.486-.515.558.558,0,0,0-.545-.558M28.548,116.452a.5.5,0,0,0-.559-.5.533.533,0,0,0-.493.5.527.527,0,1,0,1.052,0M148.462,136.12a.533.533,0,0,0-.549-.542.532.532,0,0,0,.055,1.063.548.548,0,0,0,.494-.521M87.994,199.771a.554.554,0,0,0-.6-.5.517.517,0,0,0-.488.518.541.541,0,0,0,.547.55.581.581,0,0,0,.54-.571m121-59.911a.528.528,0,0,0-.463-.526.518.518,0,0,0-.6.457.533.533,0,0,0,.5.578.542.542,0,0,0,.569-.509m82.777-10.008a.5.5,0,0,0-.511.549.526.526,0,0,0,.567.5.55.55,0,0,0,.485-.519.533.533,0,0,0-.541-.534m-183.88-3.45a.553.553,0,0,0-.538.545.6.6,0,0,0,.493.52.562.562,0,0,0,.573-.512.547.547,0,0,0-.528-.553m117.536,38.22a.57.57,0,0,0-.571-.529.555.555,0,0,0-.476.535.538.538,0,0,0,.482.524.556.556,0,0,0,.565-.53M58.246,92.693a.542.542,0,1,0-.508-.6.574.574,0,0,0,.508.6m46.066-8.868a.511.511,0,0,0-.523-.475.546.546,0,0,0-.534.556.579.579,0,0,0,.534.488.55.55,0,0,0,.524-.569M273.176,71.782a.591.591,0,0,0,.52-.5.551.551,0,0,0-.536-.557.525.525,0,0,0-.514.49.567.567,0,0,0,.53.571M123.353,51.213a.584.584,0,0,0,.546-.457.538.538,0,0,0-.479-.592.525.525,0,0,0-.067,1.048m3.127-27.244a.557.557,0,0,0-.568.532.6.6,0,0,0,.5.536.571.571,0,0,0,.553-.55.5.5,0,0,0-.481-.519M49.756,77.207a.535.535,0,0,0-.492.521.57.57,0,0,0,.564.539.6.6,0,0,0,.5-.528.574.574,0,0,0-.577-.532m93.4-62.5a.54.54,0,0,0,.529-.559.551.551,0,0,0-.519-.494.578.578,0,0,0-.536.482.561.561,0,0,0,.525.571M91.9,168.33a.531.531,0,0,0-.5-.505.5.5,0,0,0-.545.528.523.523,0,0,0,.492.513.543.543,0,0,0,.554-.536m44.5-2.63a.578.578,0,0,0-.574-.528.564.564,0,0,0-.485.529.54.54,0,0,0,.565.521.572.572,0,0,0,.494-.523m52.984-8.834a.584.584,0,0,0-.452-.56.531.531,0,0,0-.6.48.561.561,0,0,0,.521.575.608.608,0,0,0,.53-.5M115.791,46.818a.525.525,0,0,0,.045,1.049.537.537,0,0,0,.492-.584.547.547,0,0,0-.537-.465m178.27,86.132a.542.542,0,0,0-.563.525.51.51,0,0,0,.476.52.543.543,0,0,0,.572-.512.584.584,0,0,0-.486-.532M77.331,102.557a.511.511,0,0,0-.472.526.542.542,0,0,0,.522.486.583.583,0,0,0,.486-.536.551.551,0,0,0-.535-.475m-57.15-29.8a.5.5,0,0,0-.5-.5.508.508,0,0,0-.549.451.532.532,0,0,0,.533.559.548.548,0,0,0,.513-.5m77.046-3.123a.528.528,0,0,0-.477-.528.514.514,0,1,0-.038,1.026.542.542,0,0,0,.515-.5m42.617,91.407a.529.529,0,0,0-.519-.472.537.537,0,0,0-.51.562.517.517,0,1,0,1.029-.091M212.735,55.319a.534.534,0,0,0-.478-.519.494.494,0,0,0-.569.492.518.518,0,0,0,.465.529.55.55,0,0,0,.583-.5m52.7,118.1a.556.556,0,0,0-.525-.563.518.518,0,0,0-.537.454.527.527,0,0,0,.469.6.558.558,0,0,0,.593-.491m-.553-13.992a.557.557,0,0,0-.525-.563.518.518,0,0,0-.537.454.528.528,0,0,0,.469.6.558.558,0,0,0,.593-.492m-6.27-9.062a.557.557,0,0,0-.525-.563.518.518,0,0,0-.537.454.528.528,0,0,0,.469.6.557.557,0,0,0,.592-.491m-88.628-68.93a.507.507,0,0,0-.494.509.5.5,0,0,0,.579.494.5.5,0,0,0-.084-1m31.4,65.433a.546.546,0,0,0-.56.524.606.606,0,0,0,.486.529.569.569,0,0,0,.553-.535.545.545,0,0,0-.479-.519M156.967,67.488a.55.55,0,0,0-.517-.493.528.528,0,0,0-.521.482.519.519,0,1,0,1.038.011m90.018-1a.515.515,0,0,0-.5.5.5.5,0,1,0,1,0,.526.526,0,0,0-.506-.493M39.769,198.316a.511.511,0,1,0,1.022.034.5.5,0,0,0-.449-.542.53.53,0,0,0-.573.508M29.215,189.6a.544.544,0,0,0-.517-.494.537.537,0,0,0-.516.492.518.518,0,0,0,.553.525.534.534,0,0,0,.48-.523M70.7,111.2a.528.528,0,0,0,.489-.506.55.55,0,0,0-.492-.512.533.533,0,0,0-.528.549.547.547,0,0,0,.53.469M274.965,44.436a.5.5,0,0,0-.468-.522.491.491,0,0,0-.515.472.5.5,0,0,0,.465.527.517.517,0,0,0,.518-.476M203.648,39.7a.559.559,0,0,0,.523-.483.526.526,0,0,0-.521-.557.546.546,0,0,0-.489.518.558.558,0,0,0,.487.522M85.578,134.019a.539.539,0,0,0-.584-.5.5.5,0,0,0-.462.528.494.494,0,0,0,.572.489.517.517,0,0,0,.475-.519M45.345,152.471a.5.5,0,1,0-1-.006.5.5,0,0,0,.5.492.48.48,0,0,0,.5-.486m134.241-48.763a.491.491,0,0,0-.534-.455.5.5,0,0,0-.468.524.517.517,0,0,0,.537.462.506.506,0,0,0,.465-.53m10.3,27.178a.49.49,0,0,0-.534-.455.5.5,0,0,0-.468.524.517.517,0,0,0,.537.462.506.506,0,0,0,.465-.53M50.11,25.021a.519.519,0,1,0-1.037-.035.519.519,0,1,0,1.037.035M123.3,116.26a.552.552,0,0,0-.5-.5.567.567,0,0,0-.5.516.525.525,0,0,0,.509.489.5.5,0,0,0,.49-.5m45.433-20.092a.526.526,0,0,0-.48.523.511.511,0,0,0,.535.46.5.5,0,0,0,.478-.517.512.512,0,0,0-.533-.465m14.01-21.146a.571.571,0,0,0-.492-.529.527.527,0,0,0-.531.472.513.513,0,1,0,1.023.056m95.067,128.954a.5.5,0,1,0-1-.04.53.53,0,0,0,.475.515.547.547,0,0,0,.52-.475M117.818,23.984a.523.523,0,0,0-.46-.526.529.529,0,0,0-.529.459.523.523,0,0,0,.5.565.5.5,0,0,0,.486-.5m-66.4,176.882a.494.494,0,0,0-.5-.492.5.5,0,0,0-.508.478.547.547,0,0,0,.5.5.5.5,0,0,0,.5-.49M60.4,56.6a.548.548,0,0,0,.518-.494.5.5,0,0,0-.427-.489.511.511,0,0,0-.554.44.53.53,0,0,0,.462.542m53.014,118.3a.52.52,0,0,0-.5-.505.513.513,0,0,0-.471.45.528.528,0,0,0,.454.548.537.537,0,0,0,.513-.493M223.445,25.818a.48.48,0,0,0-.5-.476.5.5,0,0,0-.5.486.523.523,0,0,0,.512.489.5.5,0,0,0,.494-.5M12.708,197.843a.515.515,0,0,0-.487.423.489.489,0,1,0,.973.093.54.54,0,0,0-.486-.516M9.259,178.3a.483.483,0,0,0-.5-.494.506.506,0,0,0-.453.467.486.486,0,0,0,.5.488.467.467,0,0,0,.446-.461M277.072,19.131a.467.467,0,0,0-.482.487.494.494,0,0,0,.517.464.47.47,0,0,0,.436-.458.454.454,0,0,0-.471-.493M82.646,46.189a.477.477,0,1,0-.952.027.475.475,0,0,0,.455.443.454.454,0,0,0,.5-.47m34.154.626a.494.494,0,0,0,.064-.987.492.492,0,0,0-.53.46.5.5,0,0,0,.466.527m30.487,147.6a.476.476,0,0,0-.455.525.46.46,0,0,0,.459.439.482.482,0,1,0,0-.963m12.007-136.28a.468.468,0,0,0-.439-.451.5.5,0,0,0-.53.451.563.563,0,0,0,.486.515.544.544,0,0,0,.483-.515M10.988,94.836a.5.5,0,0,0-.461.531.545.545,0,0,0,.552.454.521.521,0,0,0,.415-.5.488.488,0,0,0-.505-.485M44.6,4.225a.5.5,0,0,0-1,.092.511.511,0,0,0,.546.442.523.523,0,0,0,.454-.534M277.723,112.716a.5.5,0,0,0-.468-.527.546.546,0,0,0-.521.493.558.558,0,0,0,.487.531.51.51,0,0,0,.5-.5M229.288,9.989a.516.516,0,1,0-.025-1.033.516.516,0,0,0-.5.57.5.5,0,0,0,.528.462M126.444,32.914a.54.54,0,0,0,.48-.52.49.49,0,0,0-.976.023.518.518,0,0,0,.5.5m.315,129.2a.488.488,0,0,0,.513-.48.482.482,0,0,0-.474-.514.5.5,0,0,0-.038.993M101.154,138.88a.472.472,0,1,0-.02-.943.478.478,0,0,0-.458.521.473.473,0,0,0,.478.422M31.363,184.249a.46.46,0,0,0-.481.492.476.476,0,0,0,.494.484.5.5,0,0,0,.489-.5.475.475,0,0,0-.5-.476M90.175,26.72a.518.518,0,0,0,.493-.515.49.49,0,0,0-.458-.458.515.515,0,0,0-.541.461.548.548,0,0,0,.506.513M27.47,36.856a.487.487,0,0,0-.525.465.471.471,0,0,0,.458.524.486.486,0,0,0,.53-.458.5.5,0,0,0-.464-.531M162.1,69.134a.486.486,0,1,0,.01.971.485.485,0,0,0,.449-.451.491.491,0,0,0-.458-.52m103.083,92.9a.506.506,0,0,0-.465.528.5.5,0,0,0,.545.443.479.479,0,0,0,.424-.481.5.5,0,0,0-.5-.49m-198.173,25.9a.531.531,0,0,0-.469.532.5.5,0,0,0,.568.417.475.475,0,0,0,.421-.478.5.5,0,0,0-.52-.471m222.43,10.813a.5.5,0,0,0-.451-.545.506.506,0,0,0-.52.482.463.463,0,0,0,.415.487.469.469,0,0,0,.555-.424M91.188,57.865a.507.507,0,0,0-.5-.5.536.536,0,0,0-.468.46.492.492,0,0,0,.469.529.484.484,0,0,0,.5-.492m170.765-19.75a.491.491,0,0,0,.511-.483.54.54,0,0,0-.458-.47.476.476,0,0,0-.491.493.442.442,0,0,0,.438.459M42.731,46.96a.51.51,0,0,0,.518-.471A.476.476,0,0,0,42.762,46a.485.485,0,0,0-.476.421.5.5,0,0,0,.446.538m154.6-22.7a.478.478,0,0,0-.5-.478.515.515,0,0,0-.456.449.477.477,0,1,0,.952.028M34.674,168.861a.485.485,0,1,0-.967.046.52.52,0,0,0,.467.451.513.513,0,0,0,.5-.5m189.49-134.23a.479.479,0,0,0-.461.525.532.532,0,0,0,.549.452.494.494,0,0,0,.406-.577.456.456,0,0,0-.494-.4m16.1,54.493a.514.514,0,0,0,.513-.481.5.5,0,0,0-.438-.471.466.466,0,0,0-.492.4.48.48,0,0,0,.417.556M77.315,190.774a.467.467,0,1,0-.038.932.475.475,0,0,0,.457-.449.462.462,0,0,0-.419-.483M189.9,90.974a.46.46,0,0,0,.5-.4.494.494,0,0,0-.445-.545.509.509,0,0,0-.506.492.474.474,0,0,0,.454.455m50.468,65.911a.526.526,0,0,0-.447-.541.5.5,0,0,0-.078,1.006.531.531,0,0,0,.525-.465M124.6,122.215a.478.478,0,0,0-.545-.428.472.472,0,0,0-.413.483.521.521,0,0,0,.511.485.5.5,0,0,0,.447-.54M185.3,54.706a.46.46,0,0,0-.506.462.482.482,0,0,0,.482.495.511.511,0,0,0,.471-.433.479.479,0,0,0-.447-.523M92.153,183.277a.478.478,0,0,0-.955.019.5.5,0,0,0,.489.492.49.49,0,0,0,.466-.511m17.882-145.36a.463.463,0,0,0-.491.482.518.518,0,0,0,.516.48.5.5,0,0,0,.444-.462.451.451,0,0,0-.469-.5M164.87,163.107a.479.479,0,0,0,.477-.494.523.523,0,0,0-.528-.456.479.479,0,0,0-.425.469.445.445,0,0,0,.477.482M127.863,35.254a.465.465,0,0,0,.066-.928.483.483,0,0,0-.5.472.469.469,0,0,0,.436.455M83.5,24.791a.482.482,0,0,0-.513.466.5.5,0,0,0,.491.5.479.479,0,0,0,.464-.434.467.467,0,0,0-.443-.528M166.51,128.955a.5.5,0,0,0-.5.478.464.464,0,0,0,.4.485.485.485,0,0,0,.546-.427.506.506,0,0,0-.447-.536M75.163,83.916a.5.5,0,0,0,.519-.475.525.525,0,0,0-.451-.469.47.47,0,0,0-.5.4.464.464,0,0,0,.429.546m38.982-28.865a.461.461,0,0,0,.482-.421.475.475,0,0,0-.462-.525.5.5,0,0,0-.492.505.482.482,0,0,0,.471.44M26.6,100.922a.5.5,0,0,0-.4-.491.49.49,0,0,0-.566.4.519.519,0,0,0,.437.548.53.53,0,0,0,.533-.458m-4.192,18.259a.459.459,0,0,0,.473-.493.47.47,0,0,0-.438-.452.494.494,0,0,0-.482.5.479.479,0,0,0,.447.446M267.74,139.839a.449.449,0,0,0-.444-.451.5.5,0,0,0-.473.437.472.472,0,0,0,.5.486.445.445,0,0,0,.421-.472M50.064,46.009a.458.458,0,0,0-.415-.483.475.475,0,0,0-.529.453.522.522,0,0,0,.419.5.5.5,0,0,0,.526-.466m203.1,66.682a.463.463,0,1,0-.924-.034.456.456,0,0,0,.444.451.469.469,0,0,0,.48-.417m-174.9,10.7a.464.464,0,0,0-.433-.458.511.511,0,0,0-.494.495.485.485,0,0,0,.529.445.444.444,0,0,0,.4-.482m2.743,17.842a.438.438,0,0,0-.455-.423.469.469,0,0,0,0,.938.478.478,0,0,0,.455-.514M73.813,13.183a.526.526,0,0,0-.5.413.468.468,0,0,0,.441.531.447.447,0,0,0,.5-.392.518.518,0,0,0-.437-.552M56.732,53.976a.454.454,0,0,0-.462-.435.5.5,0,0,0-.458.458.478.478,0,0,0,.518.468.45.45,0,0,0,.4-.491m.955,127.01a.474.474,0,0,0-.947,0,.516.516,0,0,0,.43.481.521.521,0,0,0,.517-.48M290.945,85.037a.48.48,0,0,0-.522-.452.448.448,0,0,0-.424.463.523.523,0,0,0,.438.471.512.512,0,0,0,.509-.482M115.757,99.328a.463.463,0,1,0-.923-.059.458.458,0,0,0,.388.493.485.485,0,0,0,.535-.434M237.681,28.6a.45.45,0,0,0,.033-.9.468.468,0,0,0-.459.432.475.475,0,0,0,.427.466m1.541.3a.5.5,0,0,0,.47-.428.447.447,0,0,0-.894-.04.481.481,0,0,0,.424.467M174.741,130.418a.43.43,0,0,0-.472-.411.447.447,0,0,0-.442.447.5.5,0,0,0,.519.466.471.471,0,0,0,.395-.5m96.613-9.332a.433.433,0,0,0-.474-.412.446.446,0,0,0-.444.451.514.514,0,0,0,.521.47.506.506,0,0,0,.4-.509m-79.612-72.4a.494.494,0,0,0,.477-.433.474.474,0,0,0-.424-.478.442.442,0,0,0-.465.427.459.459,0,0,0,.413.484M71.591,17.384a.461.461,0,0,0-.452-.438.461.461,0,1,0,.048.919.459.459,0,0,0,.4-.481M83.24,10.3a.5.5,0,0,0-.485-.423.481.481,0,0,0-.419.482.434.434,0,0,0,.477.407.46.46,0,0,0,.426-.466M293.852,99.15a.46.46,0,0,0-.468-.423.471.471,0,0,0-.438.462.476.476,0,0,0,.515.46.468.468,0,0,0,.392-.5m-.231,80.381a.428.428,0,0,0-.432.448.432.432,0,0,0,.451.431.47.47,0,0,0,.444-.454.461.461,0,0,0-.463-.425M49.605,171.1a.471.471,0,0,0,.04.941.493.493,0,0,0,.45-.451.487.487,0,0,0-.491-.49M123.131,22.49a.435.435,0,0,0-.454-.438.491.491,0,0,0-.459.454.464.464,0,0,0,.509.472.441.441,0,0,0,.4-.488M246.238,157.755a.449.449,0,0,0,.08-.893.455.455,0,0,0-.515.443.461.461,0,0,0,.435.451M68.656,201.677a.461.461,0,0,0,.415-.483.446.446,0,0,0-.445-.451.474.474,0,0,0-.464.518.49.49,0,0,0,.493.416M183.633,89.109a.456.456,0,0,0,.459-.428.492.492,0,0,0-.4-.492.514.514,0,0,0-.506.481.461.461,0,0,0,.451.438m-43.841-7.018a.482.482,0,0,0-.445.451.508.508,0,0,0,.522.465.473.473,0,0,0,.388-.5.428.428,0,0,0-.465-.415m41.473,23.457a.474.474,0,0,0,.451-.455.509.509,0,0,0-.477-.443.449.449,0,0,0-.435.463.435.435,0,0,0,.462.435M84.274,61a.448.448,0,0,0,.483.408.434.434,0,0,0,.42-.469.424.424,0,0,0-.476-.406.446.446,0,0,0-.427.467m150.869,96.08a.424.424,0,0,0-.408-.469.478.478,0,0,0-.473.418.5.5,0,0,0,.427.475.445.445,0,0,0,.454-.425m-37.369-18.351a.463.463,0,0,0-.487-.411.511.511,0,0,0-.4.435.472.472,0,0,0,.462.442.431.431,0,0,0,.422-.466M155.4,93.8a.439.439,0,0,0-.48.395.458.458,0,0,0,.409.477.471.471,0,0,0,.482-.406.442.442,0,0,0-.411-.467M271.512,30.785a.454.454,0,0,0-.4.495.438.438,0,0,0,.514.367.433.433,0,0,0,.362-.444.437.437,0,0,0-.475-.418M85.175,15.606a.492.492,0,0,0,.44-.473.473.473,0,0,0-.493-.408.467.467,0,0,0-.4.423.482.482,0,0,0,.45.458m208.3,178.478a.451.451,0,1,0,.043-.9.471.471,0,0,0-.47.432.455.455,0,0,0,.427.47M273.982,58.59a.449.449,0,1,0-.9,0,.449.449,0,0,0,.9,0M47.46,71.781a.473.473,0,0,0-.473-.414.449.449,0,0,0-.413.467.459.459,0,0,0,.465.418.486.486,0,0,0,.422-.471m203.38-35.77a.47.47,0,0,0,.427-.472.454.454,0,0,0-.486-.405.44.44,0,0,0,.059.878m38.3.781a.455.455,0,0,0-.474.414.439.439,0,0,0,.451.432.453.453,0,0,0,.43-.377.43.43,0,0,0-.408-.469m-62.158,51.2a.433.433,0,0,0-.865-.016.448.448,0,0,0,.424.467.442.442,0,0,0,.441-.451m5.029-6.371a.433.433,0,0,0-.865-.016.448.448,0,0,0,.424.467.443.443,0,0,0,.441-.451m-5.894-4.383a.433.433,0,0,0-.865-.016.448.448,0,0,0,.424.467.442.442,0,0,0,.441-.451m-69.843,10.2a.476.476,0,0,0,.387-.505.456.456,0,0,0-.453-.354.449.449,0,0,0-.394.417.475.475,0,0,0,.46.442m58.816-5.8a.44.44,0,0,0,.4-.484.447.447,0,0,0-.518-.359.429.429,0,0,0-.364.435.456.456,0,0,0,.483.408M116.46,74.42a.452.452,0,0,0,.454-.437.463.463,0,0,0-.447-.448.442.442,0,0,0-.441.444.415.415,0,0,0,.435.441M67.3,60.982a.458.458,0,0,0-.431-.458.465.465,0,0,0-.488.4.461.461,0,1,0,.919.06M230.006,196.7a.483.483,0,0,0-.4.5.446.446,0,0,0,.51.378.457.457,0,0,0,.364-.45.463.463,0,0,0-.472-.429m-15.227-56.113a.46.46,0,0,0-.476-.413.45.45,0,0,0,.068.9.467.467,0,0,0,.408-.484m15.34,8.369a.438.438,0,0,0-.358-.448.42.42,0,1,0-.147.826.429.429,0,0,0,.5-.378M48.3,54.25a.432.432,0,1,0,.044-.862.432.432,0,0,0-.044.862m154.18-4.491a.464.464,0,0,0,.445-.445.458.458,0,0,0-.459-.43.418.418,0,0,0-.43.443.425.425,0,0,0,.445.433m-96.964,6.37a.457.457,0,0,0-.413-.478.423.423,0,0,0-.478.4.471.471,0,0,0,.406.493.482.482,0,0,0,.485-.418M224.632,43.684a.446.446,0,0,0-.464-.428.422.422,0,0,0-.436.449.427.427,0,0,0,.453.432.456.456,0,0,0,.447-.454m-81.007,100.7a.465.465,0,0,0,.406-.48.435.435,0,0,0-.481-.389.424.424,0,0,0-.354.506.434.434,0,0,0,.429.363m151.59-28.475a.444.444,0,0,0-.013-.883.442.442,0,0,0,.013.883m-138.944,39.6a.468.468,0,0,0-.466-.431.448.448,0,0,0-.4.41.425.425,0,0,0,.416.465.463.463,0,0,0,.449-.445M160.79,29.415A.432.432,0,0,0,160.4,29a.439.439,0,0,0-.485.408.438.438,0,0,0,.876.011M93.016,20.3a.46.46,0,0,0-.465.432.447.447,0,0,0,.443.448.434.434,0,0,0,.417-.39.444.444,0,0,0-.4-.491m37.829,133.8a.437.437,0,0,0,.044-.872.471.471,0,0,0-.437.378.447.447,0,0,0,.393.494m85.43-136.709a.445.445,0,0,0-.876.152.445.445,0,0,0,.876-.152m20.454,104.112a.426.426,0,0,0,.425-.465.437.437,0,0,0-.427-.388.429.429,0,1,0,0,.854M44.866,187.793a.412.412,0,0,0,.422-.451.442.442,0,1,0-.883.03.434.434,0,0,0,.461.421m149.307-78.939a.413.413,0,0,0,.431-.357.434.434,0,0,0-.411-.464.429.429,0,0,0-.432.441.4.4,0,0,0,.411.379m-135-71.32a.425.425,0,0,0-.848.057.409.409,0,0,0,.407.385.445.445,0,0,0,.441-.442M142.9,126.417a.441.441,0,0,0-.434-.44.426.426,0,0,0-.033.844.441.441,0,0,0,.467-.4M203.491,195.8a.432.432,0,0,0-.478-.393.447.447,0,0,0-.387.41.434.434,0,0,0,.444.431.418.418,0,0,0,.421-.448m-81.96-42.96a.44.44,0,0,0,.441-.45.466.466,0,0,0-.471-.431.443.443,0,0,0-.394.42.425.425,0,0,0,.423.461m156.286,27.85a.427.427,0,0,0-.854.012.438.438,0,0,0,.4.407.431.431,0,0,0,.459-.418M29.474,69.635a.433.433,0,0,0-.864-.04.433.433,0,0,0,.864.04m152.159,57.531a.462.462,0,0,0-.359-.454.454.454,0,0,0-.485.412.424.424,0,0,0,.843.042m58.1-84.1a.432.432,0,0,0-.044-.862.444.444,0,0,0-.426.456.428.428,0,0,0,.471.406M144.624,78a.457.457,0,0,0-.46-.434.483.483,0,0,0-.422.4.476.476,0,0,0,.422.475.467.467,0,0,0,.46-.439m88.5-38.819a.431.431,0,1,0,.014-.862.466.466,0,0,0-.463.427.455.455,0,0,0,.449.434M75.843,77.31a.427.427,0,0,0,.037.854.428.428,0,1,0-.037-.854m-3.455-.646a.416.416,0,1,0-.829.055.4.4,0,0,0,.477.379.4.4,0,0,0,.353-.434M270.382,199.609a.43.43,0,0,0-.857.074.442.442,0,0,0,.423.39.461.461,0,0,0,.434-.465m6.406-153.378a.437.437,0,0,0-.466-.408.424.424,0,0,0-.4.469.407.407,0,0,0,.421.366.427.427,0,0,0,.444-.427M170.079,56.751a.408.408,0,0,0-.423.452.426.426,0,0,0,.847-.082.4.4,0,0,0-.424-.369M291.142,190.634a.47.47,0,0,0-.452.439.489.489,0,0,0,.465.429.468.468,0,0,0,.406-.4.452.452,0,0,0-.419-.465M194.777,5.335a.419.419,0,0,0,.445-.434.407.407,0,0,0-.4-.4.422.422,0,0,0-.443.437.4.4,0,0,0,.4.392M77.5,173.387a.472.472,0,0,0-.449-.435.432.432,0,1,0,.449.435M3.788,85.76a.458.458,0,0,0-.409.4.413.413,0,0,0,.358.432.408.408,0,0,0,.446-.421.451.451,0,0,0-.4-.408m123.424,94.095a.5.5,0,0,0-.376-.441.485.485,0,0,0-.485.415.431.431,0,0,0,.861.026m91.025-57.146a.419.419,0,0,0-.445-.44.413.413,0,0,0-.408.472.426.426,0,0,0,.852-.031m15.091-31.141a.425.425,0,0,0-.428-.369.442.442,0,0,0-.4.406.463.463,0,0,0,.471.42.491.491,0,0,0,.356-.457m-73.191,11.26a.435.435,0,0,0-.392.42.391.391,0,0,0,.4.393.408.408,0,0,0,.438-.365.442.442,0,0,0-.447-.448M269.014,68.957a.424.424,0,0,0-.412-.466.429.429,0,0,0-.415.387.424.424,0,0,0,.418.463.4.4,0,0,0,.409-.384M133.667,62.374a.482.482,0,0,0-.352-.46.429.429,0,1,0-.072.851.465.465,0,0,0,.424-.391m11.966,110.044a.446.446,0,0,0,.411.472.464.464,0,0,0,.427-.383.454.454,0,0,0-.418-.473.443.443,0,0,0-.42.383m11.52,23.828a.459.459,0,0,0,.451-.358.431.431,0,0,0-.411-.475.405.405,0,0,0-.4.4.412.412,0,0,0,.361.438m19.7-64.753a.389.389,0,0,0,.386-.4.415.415,0,1,0-.822.054.4.4,0,0,0,.437.349m32.059,51.689a.4.4,0,0,0,.4-.39.4.4,0,1,0-.806.022.392.392,0,0,0,.41.368M36.027,88.6a.4.4,0,1,0-.392-.4.407.407,0,0,0,.392.4m90.958-21.145a.418.418,0,0,0,.413-.393.428.428,0,0,0-.4-.411.409.409,0,0,0-.4.4.382.382,0,0,0,.385.407M275.889,145.72a.385.385,0,0,0,.405-.375.412.412,0,1,0-.821-.074.4.4,0,0,0,.416.449M73.524,68.869a.382.382,0,0,0-.379-.413.412.412,0,0,0-.431.371.437.437,0,0,0,.385.426.419.419,0,0,0,.425-.384M240.1,166.392a.4.4,0,0,0-.382.412.418.418,0,0,0,.479.393.409.409,0,0,0,.334-.453.387.387,0,0,0-.431-.353M27.471,152.8a.4.4,0,0,0-.334-.451.429.429,0,0,0-.453.348.388.388,0,0,0,.349.435.359.359,0,0,0,.438-.332M39.494,52.678a.372.372,0,0,0-.417-.355.4.4,0,0,0-.384.4.422.422,0,0,0,.468.4.414.414,0,0,0,.333-.448M221.107,159.8a.409.409,0,1,0-.045-.814.413.413,0,0,0-.362.435.38.38,0,0,0,.407.379M79.187,89.052a.392.392,0,0,0,.377-.416.412.412,0,0,0-.363-.359.447.447,0,0,0-.431.384.419.419,0,0,0,.416.39m110.232,21.687a.39.39,0,0,0-.421-.358.385.385,0,0,0-.357.42.42.42,0,0,0,.424.366.4.4,0,0,0,.354-.428m30.97,3.351a.4.4,0,0,0-.426-.356.391.391,0,0,0-.352.423.383.383,0,0,0,.415.357.421.421,0,0,0,.363-.424M55.055,14.593a.4.4,0,0,0-.79.023.4.4,0,1,0,.79-.023m150.8,138.372a.419.419,0,0,0-.4.384.44.44,0,0,0,.409.387.4.4,0,0,0,.349-.352.384.384,0,0,0-.355-.418m-.026-90.991a.42.42,0,0,0-.442-.359.391.391,0,0,0,.056.779.427.427,0,0,0,.386-.42M130.216,170.625a.428.428,0,0,0-.4-.413.4.4,0,0,0-.42.455.391.391,0,0,0,.423.371.426.426,0,0,0,.394-.414M222.153,5.357a.393.393,0,0,0,.392.388.421.421,0,0,0,.4-.4.429.429,0,0,0-.4-.39.411.411,0,0,0-.387.4M116.466,1.7a.411.411,0,0,0-.42-.371.372.372,0,0,0-.341.434.372.372,0,0,0,.369.329.392.392,0,0,0,.391-.393M270.711,129.27a.413.413,0,0,0-.413-.373.423.423,0,0,0-.391.4.4.4,0,1,0,.8-.027M16.544,83.634a.43.43,0,0,0,.369-.439.4.4,0,0,0-.449-.343.388.388,0,0,0-.326.385.412.412,0,0,0,.406.4M102.449,13.12a.383.383,0,0,0-.377-.4.45.45,0,0,0-.415.391.428.428,0,0,0,.394.407.405.405,0,0,0,.4-.394m95.53,116.108a.394.394,0,0,0,.437-.344.389.389,0,0,0-.344-.433.381.381,0,0,0-.431.343.374.374,0,0,0,.338.433M62.967,113.381a.4.4,0,0,0-.412.372.435.435,0,0,0,.377.42.417.417,0,0,0,.409-.381.4.4,0,0,0-.374-.41M157.4,140.5a.385.385,0,0,0-.337.434.38.38,0,0,0,.446.319.357.357,0,0,0,.3-.384.387.387,0,0,0-.407-.369m16.414-110.62a.4.4,0,0,0-.432.351.42.42,0,0,0,.351.436.4.4,0,0,0,.081-.787m-11.946,9.958a.4.4,0,0,0-.432.351.42.42,0,0,0,.351.436.4.4,0,0,0,.081-.787M153.028,95.4a.394.394,0,0,0,.428-.347.42.42,0,0,0-.352-.433.37.37,0,0,0-.413.353.374.374,0,0,0,.337.427M270.559,205.937a.409.409,0,0,0,.413-.378.38.38,0,0,0-.383-.393.357.357,0,0,0-.361.33.386.386,0,0,0,.332.441M126.571,91.563a.405.405,0,0,0-.368.421.428.428,0,0,0,.424.371.434.434,0,0,0,.369-.428.407.407,0,0,0-.425-.363m7.164,34.848a.368.368,0,0,0-.417-.35.384.384,0,0,0-.343.356.433.433,0,0,0,.386.409.419.419,0,0,0,.374-.415m37.3-7.123a.427.427,0,0,0-.371.433.419.419,0,0,0,.461.335.372.372,0,0,0,.319-.385.393.393,0,0,0-.409-.384M64.93,102.528a.4.4,0,0,0-.424-.37.428.428,0,0,0-.374.429.417.417,0,0,0,.431.369.4.4,0,0,0,.367-.427M35.769,129.742a.389.389,0,0,0-.77-.112.372.372,0,0,0,.318.455.405.405,0,0,0,.452-.343M109.543,24.511a.4.4,0,0,0-.4-.384.414.414,0,0,0-.374.422.384.384,0,0,0,.368.333.375.375,0,0,0,.409-.37m-43.35.129a.372.372,0,0,0,.414.35.388.388,0,0,0,.343-.351.453.453,0,0,0-.384-.411.419.419,0,0,0-.373.411m22.774,91.746a.411.411,0,0,0-.387.4.35.35,0,0,0,.333.353.373.373,0,0,0,.428-.341.4.4,0,0,0-.374-.41M212.583,22.445a.413.413,0,0,0-.362-.344.4.4,0,0,0-.381.4.375.375,0,0,0,.441.324.364.364,0,0,0,.3-.384M74.248,188.438a.386.386,0,0,0,.415-.37.407.407,0,0,0-.394-.4.388.388,0,0,0-.363.34.366.366,0,0,0,.342.429m-11.993,2.07a.387.387,0,0,0,.415-.37.408.408,0,0,0-.394-.4.388.388,0,0,0-.364.34.366.366,0,0,0,.342.429m193-91.434a.411.411,0,0,0,.377-.423.4.4,0,0,0-.44-.351.386.386,0,0,0-.322.459.363.363,0,0,0,.385.316m-3.845-5.95a.41.41,0,0,0,.376-.422.4.4,0,0,0-.44-.352.386.386,0,0,0-.322.458.363.363,0,0,0,.385.316m-22.128,82.77a.349.349,0,0,0-.327.431.358.358,0,0,0,.389.294.392.392,0,0,0,.344-.359.371.371,0,0,0-.407-.366M59.406,66.825a.414.414,0,0,0,.422-.367.39.39,0,0,0-.4-.381.366.366,0,0,0-.371.323.374.374,0,0,0,.35.424m73.906-24.763a.368.368,0,0,0-.393-.309.413.413,0,0,0-.371.427.429.429,0,0,0,.449.354.413.413,0,0,0,.315-.472m-71.618,109a.383.383,0,0,0-.424-.345.376.376,0,0,0-.352.416.4.4,0,0,0,.417.357.425.425,0,0,0,.36-.428M133.3,79.667a.358.358,0,0,0-.407-.359.378.378,0,0,0-.335.36.386.386,0,0,0,.418.364.356.356,0,0,0,.324-.364m143.832,50.316a.4.4,0,0,0-.415-.376.39.39,0,0,0-.324.376.36.36,0,0,0,.405.367.386.386,0,0,0,.334-.367m-184.5-47.7a.412.412,0,0,0-.372.426.354.354,0,0,0,.36.342A.377.377,0,0,0,93,82.721a.432.432,0,0,0-.367-.44M123.017,147.8a.361.361,0,0,0-.382.308.4.4,0,0,0,.361.419.434.434,0,0,0,.35-.364.367.367,0,0,0-.329-.363m158.15-70.1a.359.359,0,0,0-.375-.391.383.383,0,0,0-.382.31.391.391,0,0,0,.343.433.371.371,0,0,0,.414-.353M159.233,28.276a.372.372,0,0,0-.348-.418.4.4,0,0,0-.4.379.42.42,0,0,0,.327.374.36.36,0,0,0,.423-.335m-10.885-2.836a.384.384,0,0,0-.37-.4.379.379,0,0,0-.346.344.349.349,0,0,0,.284.388.373.373,0,0,0,.432-.33M286.1,176.039a.406.406,0,0,0,.368-.41.4.4,0,0,0-.357-.34.378.378,0,0,0-.358.409.365.365,0,0,0,.347.341M26.86,189.963a.4.4,0,0,0-.43-.347.377.377,0,0,0-.337.357.414.414,0,0,0,.383.4.442.442,0,0,0,.384-.41m172.208-66.322a.379.379,0,0,0-.347-.351.4.4,0,0,0-.369.337.369.369,0,0,0,.391.38.353.353,0,0,0,.326-.365M74.859,106.524a.374.374,0,0,0-.745-.066.409.409,0,0,0,.379.411.422.422,0,0,0,.366-.346m39.217,53.637a.423.423,0,0,0-.349.372.37.37,0,0,0,.428.353.353.353,0,0,0,.3-.4.379.379,0,0,0-.377-.329M233.489,50.88a.371.371,0,0,0-.367-.334.356.356,0,1,0,.051.707.339.339,0,0,0,.316-.372m-50.3-15.106a.39.39,0,0,0-.39.386.381.381,0,1,0,.759-.061.392.392,0,0,0-.369-.325m3.279,17.248a.389.389,0,0,0-.391.386.381.381,0,1,0,.759-.062.392.392,0,0,0-.369-.324m37.905,82.759a.345.345,0,0,0-.309-.373.353.353,0,0,0-.406.355.4.4,0,0,0,.354.346.364.364,0,0,0,.361-.328m25.418,43.363a.4.4,0,0,0-.356.347.366.366,0,0,0,.34.353.374.374,0,0,0,.355-.341.383.383,0,0,0-.34-.359M287.769,60.337a.359.359,0,0,0,.356-.345.4.4,0,0,0-.319-.387.393.393,0,0,0-.4.386.4.4,0,0,0,.367.347M82.291,89.086a.379.379,0,0,0-.424-.348.361.361,0,0,0-.33.364.377.377,0,0,0,.754-.016m135.9-31.92a.366.366,0,0,0,.313-.381.358.358,0,0,0-.378-.309.34.34,0,0,0-.309.373.354.354,0,0,0,.374.316M57.026,76.7a.334.334,0,0,0-.333-.357.354.354,0,0,0-.37.327.345.345,0,0,0,.336.354.336.336,0,0,0,.366-.324M148,17.89a.349.349,0,0,0-.339-.355.343.343,0,0,0-.377.312.358.358,0,0,0,.372.4A.376.376,0,0,0,148,17.89m54.99,158a.348.348,0,0,0-.338-.353.354.354,0,1,0,0,.705.36.36,0,0,0,.343-.352M243.607,9.4a.362.362,0,0,0-.376.309.367.367,0,0,0,.385.381.354.354,0,0,0,.33-.356.321.321,0,0,0-.339-.334M105.578,177.178a.352.352,0,0,0-.369-.325.415.415,0,0,0-.344.371.4.4,0,0,0,.427.361.375.375,0,0,0,.286-.407M95.477,166.7a.352.352,0,0,0-.369-.325.414.414,0,0,0-.344.371.4.4,0,0,0,.427.361.375.375,0,0,0,.287-.407m-10.59-17.757a.352.352,0,0,0-.369-.325.415.415,0,0,0-.344.371.4.4,0,0,0,.427.361.375.375,0,0,0,.286-.407m8.733,36.354a.378.378,0,0,0-.338-.358.352.352,0,0,0-.37.391.367.367,0,0,0,.365.324.4.4,0,0,0,.344-.358M277.883,87.315a.334.334,0,0,0-.379.3.341.341,0,0,0,.286.391.362.362,0,0,0,.381-.307.326.326,0,0,0-.288-.384m-119.348,43.3a.371.371,0,0,0-.479-.255.351.351,0,0,0-.214.431.37.37,0,0,0,.43.23.35.35,0,0,0,.263-.406m109.98,74.3a.341.341,0,0,0,.345-.338.333.333,0,0,0-.332-.352.355.355,0,0,0-.351.341.346.346,0,0,0,.338.35M148.5,126.768a.356.356,0,0,0-.377.322.371.371,0,0,0,.309.391.358.358,0,0,0,.068-.713m-10,14.154a.361.361,0,0,0-.337-.359.352.352,0,0,0-.367.4.334.334,0,0,0,.37.314.339.339,0,0,0,.334-.354M156.656,73.1a.371.371,0,0,0-.333-.374.362.362,0,0,0-.4.292.4.4,0,0,0,.367.428.389.389,0,0,0,.369-.347m91.783,96.211a.346.346,0,1,0-.357-.32.325.325,0,0,0,.357.32m-16.83-68.532a.35.35,0,1,0-.062.7.391.391,0,0,0,.386-.322.365.365,0,0,0-.324-.374m-46.816,9.366a.422.422,0,0,0-.364-.342.357.357,0,0,0,.025.714.442.442,0,0,0,.339-.371M150.764,27.011a.375.375,0,0,0,.367-.323.361.361,0,0,0-.292-.39.393.393,0,0,0-.421.356.4.4,0,0,0,.346.357M230.895,20.3a.353.353,0,1,0,.356.35.389.389,0,0,0-.356-.35m50.048,142.064a.355.355,0,0,0,.314.428.342.342,0,0,0,.321-.279c.014-.172-.161-.393-.325-.356a.954.954,0,0,0-.311.207M89.6,202.761a.325.325,0,0,0-.411-.249.338.338,0,0,0,.144.659.348.348,0,0,0,.267-.411m-.96-183.076a.383.383,0,0,0-.426.338.348.348,0,0,0,.309.3c.178.014.392-.171.343-.333a1.043,1.043,0,0,0-.225-.308M64.313,98.274A.35.35,0,0,0,64,97.9a.342.342,0,1,0,.314.373M232,58.838a.361.361,0,0,0,.362-.388.331.331,0,0,0-.342-.244c-.187.014-.356.209-.281.368.056.118.193.2.261.265M55.98,160.519a.362.362,0,0,0-.348.337.369.369,0,0,0,.337.353.356.356,0,0,0,.385-.376.366.366,0,0,0-.373-.314m188.294-16.554a.352.352,0,0,0-.334-.352.364.364,0,0,0-.367.32.351.351,0,0,0,.7.032M106.927,85.3a.35.35,0,0,0,.31.426.325.325,0,0,0,.313-.279c.023-.183-.133-.383-.312-.346a.938.938,0,0,0-.311.2m105.682,70.546a1.092,1.092,0,0,0-.32-.218c-.168-.046-.357.17-.335.34a.368.368,0,0,0,.315.3.393.393,0,0,0,.34-.423m19.4,2.174a.3.3,0,0,0-.266.326.3.3,0,0,0,.374.3.351.351,0,0,0,.282-.327.344.344,0,0,0-.389-.3m-84.315,8.2a.347.347,0,0,0,.408-.258.343.343,0,0,0-.291-.392.317.317,0,0,0-.331.347c.03.126.158.228.214.3M44.141,37.924a.374.374,0,0,0-.378.311.359.359,0,0,0,.382.381.346.346,0,0,0,0-.691M159.78,61.59a.331.331,0,0,0-.658-.062.3.3,0,0,0,.256.335.33.33,0,0,0,.4-.273M66.555,23.455a.341.341,0,0,0,.344-.345.333.333,0,0,0-.312-.3.321.321,0,1,0-.033.642M256.179,28.67a.338.338,0,1,0-.345-.325.316.316,0,0,0,.345.325M220.553,168.915a.3.3,0,0,0-.3.3.318.318,0,0,0,.333.35.307.307,0,0,0,.3-.3.328.328,0,0,0-.339-.35M291.536,23.86a.331.331,0,1,0,.076-.657.328.328,0,0,0-.379.292.316.316,0,0,0,.3.364M152.076,81.912a.956.956,0,0,0,.383,0,.4.4,0,0,0,.21-.285.414.414,0,0,0-.189-.3.277.277,0,0,0-.405.107,1.381,1.381,0,0,0-.077.374,2.546,2.546,0,0,0-.379.1.287.287,0,0,0-.175.385.456.456,0,0,0,.266.246.288.288,0,0,0,.355-.231,1.722,1.722,0,0,0,.011-.389m56.151-54.735a.367.367,0,0,0-.731.008.361.361,0,0,0,.411.357.34.34,0,0,0,.32-.364M145.574,43.723a.317.317,0,0,0,.055-.632.333.333,0,0,0-.337.251.314.314,0,0,0,.281.381M251.729,77.6a.381.381,0,0,0,.352-.345.366.366,0,0,0-.336-.357.351.351,0,0,0-.016.7M106.792,20.073a.361.361,0,0,0-.368-.321.365.365,0,0,0-.335.355.357.357,0,0,0,.371.315.34.34,0,0,0,.331-.35m157.737,24.34a.365.365,0,0,0,.365-.337.386.386,0,0,0-.328-.378.356.356,0,0,0-.355.342.34.34,0,0,0,.318.373m-17.07,150.814a.342.342,0,0,0-.317.368.327.327,0,0,0,.378.3.345.345,0,0,0,.286-.319.359.359,0,0,0-.347-.346M175.7,28.261a.32.32,0,0,0-.327-.354.346.346,0,0,0-.342.266.351.351,0,0,0,.3.394.324.324,0,0,0,.374-.3m-65.383,55a.336.336,0,0,0-.311-.365.327.327,0,0,0-.347.327.308.308,0,0,0,.266.32.345.345,0,0,0,.391-.281M67.791,129.781c-.147-.147-.231-.286-.352-.337-.165-.07-.349.113-.352.309,0,.16.135.319.294.283a1.635,1.635,0,0,0,.409-.255m63.427-96.439a.307.307,0,0,0-.344-.317.3.3,0,0,0-.3.283.337.337,0,0,0,.307.365.316.316,0,0,0,.334-.331M20.875,92.184a.375.375,0,0,0-.323-.37.384.384,0,0,0-.334.273.333.333,0,1,0,.656.1M274.516,144.45a.321.321,0,1,0-.641-.011.314.314,0,0,0,.357.321.294.294,0,0,0,.285-.31M263.228,29.171c.193.011.389-.157.364-.324a.375.375,0,0,0-.3-.324c-.161-.041-.346.139-.35.333a.315.315,0,0,0,.283.316m-218.6,94.46a.324.324,0,0,0-.292.376.312.312,0,0,0,.3.287.37.37,0,0,0,.35-.338.355.355,0,0,0-.36-.325m-1.172,9.24a.325.325,0,0,0-.292.376.312.312,0,0,0,.3.287.371.371,0,0,0,.351-.338.357.357,0,0,0-.36-.325M42,135.239a.324.324,0,0,0-.292.376.312.312,0,0,0,.3.287.371.371,0,0,0,.351-.339.356.356,0,0,0-.36-.325M280.776,203.86a.323.323,0,0,0-.325-.276.3.3,0,0,0-.291.306.31.31,0,0,0,.363.313.327.327,0,0,0,.254-.343M112.391,30.2a.269.269,0,0,0-.287-.289.275.275,0,0,0-.259.244.291.291,0,0,0,.251.328.272.272,0,0,0,.295-.283M268.346,149.621a.285.285,0,0,0-.308-.282.334.334,0,0,0-.282.324.307.307,0,0,0,.319.281.3.3,0,0,0,.271-.322m-50.49-7.681a.316.316,0,0,0-.271-.383.291.291,0,0,0-.332.249c-.023.184.147.4.308.352a.966.966,0,0,0,.295-.218M93.162,29.1a.305.305,0,0,0-.271-.31.3.3,0,0,0-.327.252.311.311,0,0,0,.225.35.326.326,0,0,0,.374-.292M283.906,93.825c-.158-.138-.25-.269-.373-.314-.175-.063-.338.119-.327.325.008.173.145.317.3.268a1.765,1.765,0,0,0,.4-.279m-72.614,33.2c.265,0,.421-.16.407-.34a.324.324,0,0,0-.3-.29.286.286,0,0,0-.314.337c.029.121.153.219.209.293M78.669,109.669a.3.3,0,0,0,.31-.274.33.33,0,0,0-.342-.332.323.323,0,0,0-.265.325.282.282,0,0,0,.3.281m100.7,2.806c-.063.062-.2.145-.254.266-.064.155.138.35.324.354a.285.285,0,0,0,.285-.3c0-.177-.112-.308-.355-.315M49.135,131.151a.309.309,0,0,0-.28-.317.311.311,0,1,0,0,.619.279.279,0,0,0,.284-.3m15.3,60.591c.016-.238-.1-.376-.27-.392a.313.313,0,0,0-.337.256c-.025.181.15.4.312.355a.968.968,0,0,0,.294-.22m33.8-110.4a.352.352,0,0,0-.3.373.317.317,0,0,0,.309.281.324.324,0,0,0,.309-.284.374.374,0,0,0-.316-.37m-8.918-.047a.285.285,0,0,0-.269-.3.313.313,0,1,0,.008.619.3.3,0,0,0,.261-.315M59.07,39.8c-.029-.266-.225-.429-.39-.375a.342.342,0,0,0-.258.351.3.3,0,0,0,.379.283c.121-.05.2-.192.269-.259M164.051,181.661a1.072,1.072,0,0,0-.3-.212c-.156-.049-.292.09-.3.259a.3.3,0,0,0,.322.335.356.356,0,0,0,.279-.382m-23.872-13.413c-.065.061-.205.136-.258.252-.072.159.092.367.264.387a.335.335,0,0,0,.343-.328c.006-.156-.115-.29-.348-.311M99.412,126.079a.284.284,0,0,0,.281-.308.3.3,0,0,0-.335-.257.292.292,0,0,0-.243.272.282.282,0,0,0,.3.293M247.27,22.174a.332.332,0,0,0-.39.275.308.308,0,0,0,.28.314c.164.011.34-.121.306-.273a1.025,1.025,0,0,0-.2-.316M117.992,130.546a.312.312,0,0,0-.266-.326.281.281,0,0,0-.293.292.288.288,0,0,0,.224.282.3.3,0,0,0,.335-.249m23.332,4.887c0-.237-.145-.359-.311-.343a.3.3,0,0,0-.277.309c.017.152.188.323.313.27a1.037,1.037,0,0,0,.276-.236m66.456-67.4a.277.277,0,0,0,.314-.261.321.321,0,0,0-.274-.316.329.329,0,0,0-.317.278.28.28,0,0,0,.277.3M57.213,159.95a.3.3,0,0,0-.268-.31.293.293,0,0,0-.3.283.286.286,0,0,0,.27.3.274.274,0,0,0,.3-.275m55.247,9.72a.286.286,0,0,0-.329-.253.247.247,0,0,0-.237.258.3.3,0,0,0,.281.306.31.31,0,0,0,.285-.311m10.268,21.542a.286.286,0,0,0-.33-.253.247.247,0,0,0-.236.258.3.3,0,0,0,.281.306.31.31,0,0,0,.285-.311m2.9-5.945a.286.286,0,0,0-.329-.253.248.248,0,0,0-.237.258.3.3,0,0,0,.281.306.31.31,0,0,0,.285-.311m-15.365,13.978a.287.287,0,0,0-.33-.253.248.248,0,0,0-.237.258.3.3,0,0,0,.282.306.31.31,0,0,0,.285-.311M241.37,55.106a.307.307,0,0,0-.265-.372.263.263,0,0,0-.3.268c0,.167.123.339.263.3a.966.966,0,0,0,.3-.2M15.188,185.944a.277.277,0,0,0-.309-.27.309.309,0,0,0-.285.307.341.341,0,0,0,.322.281.308.308,0,0,0,.273-.318m-10.1-34.475a.278.278,0,0,0-.309-.271.309.309,0,0,0-.285.307.341.341,0,0,0,.321.281.309.309,0,0,0,.273-.318M71.531,44.651a.3.3,0,0,0-.323-.269.31.31,0,0,0-.253.337.258.258,0,0,0,.279.219.272.272,0,0,0,.3-.286m1.981,2a.3.3,0,0,0-.323-.269.31.31,0,0,0-.253.337.258.258,0,0,0,.279.219.272.272,0,0,0,.3-.287M76.77,57.081a.3.3,0,0,0-.323-.269.31.31,0,0,0-.254.336.258.258,0,0,0,.279.219.271.271,0,0,0,.3-.286m-.679-29.357a.328.328,0,0,0,.387-.269.309.309,0,0,0-.329-.338.265.265,0,0,0-.262.308,1.02,1.02,0,0,0,.2.3M210.3,206.332c.027-.235-.1-.372-.261-.376a.308.308,0,0,0-.321.262c-.009.139.138.333.279.3a.894.894,0,0,0,.3-.192M13.886,107.517a1.645,1.645,0,0,0-.412-.254c-.15-.034-.281.141-.267.3s.177.323.306.269a1.82,1.82,0,0,0,.374-.316m.213-82.97c.242.019.379-.1.386-.258a.332.332,0,0,0-.248-.342c-.175-.028-.394.145-.349.313.032.122.159.22.212.288m159.4,90.89a.313.313,0,0,0,.381-.267c0-.154-.153-.33-.29-.287-.1.034-.257.152-.255.23,0,.121.117.239.164.323m2.811,11.968a.314.314,0,0,0,.382-.267c0-.155-.154-.33-.291-.287-.1.033-.256.152-.255.23,0,.121.117.24.164.324m50.24-58.377a.274.274,0,0,0-.345-.219.261.261,0,0,0,.066.515.277.277,0,0,0,.279-.3m56.847,102.383c-.028-.235-.188-.355-.344-.313a.263.263,0,0,0-.211.289.273.273,0,0,0,.338.233c.1-.043.167-.158.217-.208m-40.822-61.862c-.052-.209-.15-.276-.3-.267a.261.261,0,0,0-.253.255.269.269,0,0,0,.331.242c.1-.048.163-.165.222-.229M119.85,138.315c-.095.137-.193.223-.216.326a.245.245,0,0,0,.27.285c.149-.015.293-.193.232-.328-.044-.1-.16-.162-.286-.282M51.12,125.764c-.158-.085-.254-.175-.358-.184a.227.227,0,0,0-.242.242.242.242,0,0,0,.315.239c.1-.041.158-.16.285-.3M176.627,158a.75.75,0,0,0-.252-.155c-.152-.03-.28.135-.259.292a.252.252,0,0,0,.258.226c.155.012.281-.142.252-.364M43.1,207.538a1.779,1.779,0,0,0,.027-.305c-.019-.239-.132-.344-.331-.329-.227.017-.341.181-.287.435a.728.728,0,0,0,.116.2Z" transform="translate(0 0.004)" fill="#fff"/>
        </g>
      </g>
    </g>
    <g id="마스크_그룹_139" data-name="마스크 그룹 139" transform="translate(186.906 201.031)" clip-path="url(#clip-path-3)">
      <g id="그룹_3988" data-name="그룹 3988" transform="translate(22.353 18.151)">
        <g id="그룹_3987" data-name="그룹 3987" transform="translate(0 0)" clip-path="url(#clip-path-4)">
          <path id="패스_6722" data-name="패스 6722" d="M141.527,478.989a7.608,7.608,0,1,1-7.608-7.607,7.607,7.607,0,0,1,7.608,7.607" transform="translate(-74.182 -263.766)" fill="#7cc0f7"/>
          <path id="패스_6723" data-name="패스 6723" d="M407.125,321.941a7.608,7.608,0,1,1-7.608-7.607,7.607,7.607,0,0,1,7.608,7.607" transform="translate(-210.732 -161.294)" fill="#7cc0f7"/>
          <path id="패스_6724" data-name="패스 6724" d="M240.29,339.02a8.875,8.875,0,1,1-8.875-8.875,8.876,8.876,0,0,1,8.875,8.875" transform="translate(-119.661 -169.795)" fill="#7cc0f7"/>
          <path id="패스_6725" data-name="패스 6725" d="M532.375,46.934a8.875,8.875,0,1,1-8.875-8.875,8.875,8.875,0,0,1,8.875,8.875" transform="translate(-276.717 -12.739)" fill="#7cc0f7"/>
          <path id="패스_6726" data-name="패스 6726" d="M87.3,236.6a3.8,3.8,0,1,1-3.8-3.8,3.8,3.8,0,0,1,3.8,3.8" transform="translate(-56.797 -111.831)" fill="#7cc0f7"/>
          <path id="패스_6727" data-name="패스 6727" d="M271.263,52.641a3.8,3.8,0,1,1-3.8-3.8,3.8,3.8,0,0,1,3.8,3.8" transform="translate(-168.384 -33.677)" fill="#7cc0f7"/>
          <path id="패스_6728" data-name="패스 6728" d="M76.8,369.386c-12.844,2.709-15.041,4.9-17.75,17.749-2.707-12.845-4.9-15.04-17.747-17.749,12.844-2.708,15.04-4.9,17.747-17.749,2.71,12.845,4.906,15.041,17.75,17.749" transform="translate(-34.467 -201.131)" fill="#f7ba0f"/>
          <path id="패스_6729" data-name="패스 6729" d="M589.8,173.1c-12.844,2.708-15.041,4.9-17.75,17.748-2.707-12.845-4.9-15.04-17.747-17.748,12.844-2.709,15.04-4.9,17.747-17.749,2.71,12.845,4.906,15.04,17.75,17.749" transform="translate(-298.052 -75.807)" fill="#f7ba0f"/>
          <path id="패스_6730" data-name="패스 6730" d="M366,444.21c-8.411,1.773-9.849,3.211-11.624,11.623-1.773-8.412-3.211-9.849-11.622-11.623,8.411-1.774,9.849-3.211,11.622-11.623C356.15,441,357.588,442.436,366,444.21" transform="translate(-91.999 -264.332)" fill="#f7ba0f"/>
          <path id="패스_6731" data-name="패스 6731" d="M36.842,18.42c-13.331,2.811-15.61,5.089-18.422,18.42C15.61,23.51,13.331,21.231,0,18.42,13.331,15.609,15.61,13.331,18.42,0c2.812,13.331,5.091,15.609,18.422,18.42" transform="translate(30.622 18.965)" fill="#f7ba0f"/>
        </g>
      </g>
    </g>
  </g>
</svg>
